HIERARCHY
ROOT Hip
{
	OFFSET -0.182990 0.224807 0.149102
	CHANNELS 6 Xposition Yposition Zposition Xrotation Yrotation Zrotation
	JOINT LowerSpine
	{
		OFFSET -0.001262 0.143019 0.265921
		CHANNELS 6 Xposition Yposition Zposition Xrotation Yrotation Zrotation
		JOINT MiddleSpine
		{
			OFFSET -0.010037 -0.021146 0.235877
			CHANNELS 3 Xrotation Yrotation Zrotation
			JOINT Chest
			{
				OFFSET -0.008185 0.046108 0.295107
				CHANNELS 3 Xrotation Yrotation Zrotation
				JOINT Neck
				{
					OFFSET -0.025452 -0.015681 0.659659
					CHANNELS 6 Xposition Yposition Zposition Xrotation Yrotation Zrotation
					JOINT Head
					{
						OFFSET -0.020709 -0.116950 0.367672
						CHANNELS 3 Xrotation Yrotation Zrotation
						End Site
						{
							OFFSET -0.002216 -0.003865 0.053381
						}
					}
				}
				JOINT LClavicle
				{
					OFFSET 0.023101 -0.226561 0.629513
					CHANNELS 6 Xposition Yposition Zposition Xrotation Yrotation Zrotation
					JOINT LShoulder
					{
						OFFSET 0.354608 0.122535 0.110832
						CHANNELS 3 Xrotation Yrotation Zrotation
						JOINT LForearm
						{
							OFFSET 0.825644 -0.042444 0.028047
							CHANNELS 3 Xrotation Yrotation Zrotation
							JOINT LHand
							{
								OFFSET 0.688477 -0.037438 0.027755
								CHANNELS 3 Xrotation Yrotation Zrotation
								JOINT LFinger1
								{
									OFFSET 0.261505 -0.091146 0.029940
									CHANNELS 6 Xposition Yposition Zposition Xrotation Yrotation Zrotation
									JOINT LFinger11
									{
										OFFSET 0.099723 -0.022556 -0.021433
										CHANNELS 3 Xrotation Yrotation Zrotation
										JOINT LFinger12
										{
											OFFSET 0.068079 -0.015403 -0.014636
											CHANNELS 3 Xrotation Yrotation Zrotation
											End Site
											{
												OFFSET 0.050713 -0.010610 -0.013603
											}
										}
									}
								}
								JOINT LFinger2
								{
									OFFSET 0.269303 -0.023910 0.036733
									CHANNELS 6 Xposition Yposition Zposition Xrotation Yrotation Zrotation
									JOINT LFinger21
									{
										OFFSET 0.123407 -0.006720 0.004960
										CHANNELS 3 Xrotation Yrotation Zrotation
										JOINT LFinger22
										{
											OFFSET 0.068405 -0.003714 0.002769
											CHANNELS 3 Xrotation Yrotation Zrotation
											End Site
											{
												OFFSET 0.053446 -0.003122 -0.001790
											}
										}
									}
								}
								JOINT LFinger3
								{
									OFFSET 0.259435 0.044468 0.030249
									CHANNELS 6 Xposition Yposition Zposition Xrotation Yrotation Zrotation
									JOINT LFinger31
									{
										OFFSET 0.112591 0.000504 -0.001198
										CHANNELS 3 Xrotation Yrotation Zrotation
										JOINT LFinger32
										{
											OFFSET 0.064161 0.000299 -0.000662
											CHANNELS 3 Xrotation Yrotation Zrotation
											End Site
											{
												OFFSET 0.053381 -0.000411 -0.004438
											}
										}
									}
								}
								JOINT LFinger4
								{
									OFFSET 0.244971 0.091238 -0.004564
									CHANNELS 6 Xposition Yposition Zposition Xrotation Yrotation Zrotation
									JOINT LFinger41
									{
										OFFSET 0.070546 0.015467 -0.010963
										CHANNELS 3 Xrotation Yrotation Zrotation
										JOINT LFinger42
										{
											OFFSET 0.051733 0.011350 -0.008023
											CHANNELS 3 Xrotation Yrotation Zrotation
											End Site
											{
												OFFSET 0.051533 0.009097 -0.011447
											}
										}
									}
								}
								JOINT LFinger0
								{
									OFFSET 0.054397 -0.043377 -0.041627
									CHANNELS 6 Xposition Yposition Zposition Xrotation Yrotation Zrotation
									JOINT LFinger01
									{
										OFFSET 0.099550 -0.082204 -0.033423
										CHANNELS 3 Xrotation Yrotation Zrotation
										JOINT LFinger02
										{
											OFFSET 0.065764 -0.051780 -0.023900
											CHANNELS 3 Xrotation Yrotation Zrotation
											End Site
											{
												OFFSET 0.041289 -0.030969 -0.014337
											}
										}
									}
								}
							}
						}
					}
				}
				JOINT RClavicle
				{
					OFFSET -0.096579 -0.219347 0.625067
					CHANNELS 6 Xposition Yposition Zposition Xrotation Yrotation Zrotation
					JOINT RShoulder
					{
						OFFSET -0.344633 0.164692 0.084872
						CHANNELS 3 Xrotation Yrotation Zrotation
						JOINT RForearm
						{
							OFFSET -0.824574 0.056990 -0.033260
							CHANNELS 3 Xrotation Yrotation Zrotation
							JOINT RHand
							{
								OFFSET -0.688153 0.045511 -0.023388
								CHANNELS 3 Xrotation Yrotation Zrotation
								JOINT RFinger1
								{
									OFFSET -0.272040 -0.058998 0.010121
									CHANNELS 6 Xposition Yposition Zposition Xrotation Yrotation Zrotation
									JOINT RFinger11
									{
										OFFSET -0.099849 -0.010531 -0.028847
										CHANNELS 3 Xrotation Yrotation Zrotation
										JOINT RFinger12
										{
											OFFSET -0.068164 -0.007193 -0.019701
											CHANNELS 3 Xrotation Yrotation Zrotation
											End Site
											{
												OFFSET -0.050474 -0.004513 -0.017362
											}
										}
									}
								}
								JOINT RFinger2
								{
									OFFSET -0.272201 0.008718 0.016618
									CHANNELS 6 Xposition Yposition Zposition Xrotation Yrotation Zrotation
									JOINT RFinger21
									{
										OFFSET -0.123352 0.008149 -0.004207
										CHANNELS 3 Xrotation Yrotation Zrotation
										JOINT RFinger22
										{
											OFFSET -0.068374 0.004531 -0.002312
											CHANNELS 3 Xrotation Yrotation Zrotation
											End Site
											{
												OFFSET -0.053155 0.003301 -0.005750
											}
										}
									}
								}
								JOINT RFinger3
								{
									OFFSET -0.253752 0.075390 0.011183
									CHANNELS 6 Xposition Yposition Zposition Xrotation Yrotation Zrotation
									JOINT RFinger31
									{
										OFFSET -0.111320 0.013996 -0.009517
										CHANNELS 3 Xrotation Yrotation Zrotation
										JOINT RFinger32
										{
											OFFSET -0.063436 0.007988 -0.005402
											CHANNELS 3 Xrotation Yrotation Zrotation
											End Site
											{
												OFFSET -0.052570 0.005973 -0.008374
											}
										}
									}
								}
								JOINT RFinger4
								{
									OFFSET -0.231250 0.119933 -0.022256
									CHANNELS 6 Xposition Yposition Zposition Xrotation Yrotation Zrotation
									JOINT RFinger41
									{
										OFFSET -0.067178 0.023765 -0.016077
										CHANNELS 3 Xrotation Yrotation Zrotation
										JOINT RFinger42
										{
											OFFSET -0.049263 0.017435 -0.011773
											CHANNELS 3 Xrotation Yrotation Zrotation
											End Site
											{
												OFFSET -0.049082 0.015160 -0.015185
											}
										}
									}
								}
								JOINT RFinger0
								{
									OFFSET -0.055978 -0.036724 -0.045725
									CHANNELS 6 Xposition Yposition Zposition Xrotation Yrotation Zrotation
									JOINT RFinger01
									{
										OFFSET -0.105944 -0.069824 -0.041064
										CHANNELS 3 Xrotation Yrotation Zrotation
										JOINT RFinger02
										{
											OFFSET -0.069548 -0.043627 -0.028924
											CHANNELS 3 Xrotation Yrotation Zrotation
											End Site
											{
												OFFSET -0.043531 -0.025859 -0.017488
											}
										}
									}
								}
							}
						}
					}
				}
			}
		}
	}
	JOINT RThigh
	{
		OFFSET -0.309184 0.038559 0.106839
		CHANNELS 6 Xposition Yposition Zposition Xrotation Yrotation Zrotation
		JOINT RShin
		{
			OFFSET 0.025706 0.052541 -1.206018
			CHANNELS 3 Xrotation Yrotation Zrotation
			JOINT RFoot
			{
				OFFSET 0.046996 0.050281 -1.183431
				CHANNELS 3 Xrotation Yrotation Zrotation
				JOINT RToe
				{
					OFFSET -0.010755 -0.266187 -0.142246
					CHANNELS 3 Xrotation Yrotation Zrotation
					End Site
					{
						OFFSET -0.003130 -0.053422 -0.002394
					}
				}
			}
		}
	}
	JOINT LThigh
	{
		OFFSET 0.302820 0.001685 0.129585
		CHANNELS 6 Xposition Yposition Zposition Xrotation Yrotation Zrotation
		JOINT LShin
		{
			OFFSET 0.070018 0.049871 -1.204380
			CHANNELS 3 Xrotation Yrotation Zrotation
			JOINT LFoot
			{
				OFFSET 0.046996 0.050282 -1.183431
				CHANNELS 3 Xrotation Yrotation Zrotation
				JOINT LToe
				{
					OFFSET -0.010755 -0.266189 -0.142246
					CHANNELS 3 Xrotation Yrotation Zrotation
					End Site
					{
						OFFSET -0.003130 -0.053422 -0.002394
					}
				}
			}
		}
	}
}
MOTION
Frames: 5
Frame Time: 0.041667
-0.261355 0.051051 2.337775 8.178376 5.933651 0.594121 -0.001262 0.143019 0.265921 0.051402 0.032377 1.536800 -1.246932 -0.935553 0.496006 -4.120108 -3.158602 1.625255 -0.025452 -0.015681 0.659658 -15.637501 -0.789127 -1.302978 -1.595366 0.866790 0.004509 0.023101 -0.226561 0.629512 0.783846 14.230493 0.547227 64.581064 30.058556 -56.086990 0.403539 0.347354 -8.863466 0.000011 0.000002 -0.000010 0.261504 -0.091146 0.029940 0.000006 -0.000005 -0.000005 0.000001 0.000002 -0.000008 0.000003 0.000001 -0.000006 0.269303 -0.023910 0.036733 -0.000001 -0.000000 -0.000003 -0.000006 0.000003 -0.000002 -0.000000 0.000005 0.000004 0.259435 0.044467 0.030249 -0.000005 0.000002 -0.000001 -0.000001 0.000001 -0.000000 -0.000011 0.000003 -0.000003 0.244970 0.091238 -0.004564 -0.000011 0.000003 -0.000004 0.000004 -0.000000 0.000012 0.000000 -0.000003 -0.000002 0.054396 -0.043377 -0.041628 -0.000016 -0.000003 -0.000002 0.000009 0.000004 -0.000005 -0.000002 0.000009 -0.000013 -0.096579 -0.219346 0.625067 -0.952612 -14.670360 -0.763880 68.947317 -26.792723 63.794547 -0.152219 -0.193867 4.362575 0.000002 -0.000006 0.000004 -0.272039 -0.058998 0.010121 -0.000006 -0.000000 0.000001 0.000009 -0.000011 -0.000001 0.000003 0.000015 -0.000002 -0.272201 0.008718 0.016618 -0.000003 0.000001 0.000004 0.000000 0.000000 0.000002 -0.000001 -0.000007 0.000001 -0.253752 0.075390 0.011183 -0.000002 0.000004 0.000002 -0.000004 0.000004 -0.000006 0.000009 -0.000001 -0.000012 -0.231249 0.119933 -0.022256 -0.000001 0.000002 0.000000 -0.000000 -0.000001 0.000007 -0.000012 -0.000004 -0.000012 -0.055977 -0.036724 -0.045725 -0.000002 0.000008 0.000002 0.000003 -0.000010 0.000002 -0.000006 -0.000006 -0.000002 -0.309184 0.038560 0.106840 -14.586240 -6.337488 0.886359 5.440898 -0.385251 0.925800 0.075378 0.793250 -1.503744 0.000007 0.000021 0.000004 0.286956 0.010519 0.243539 -10.194664 -5.842493 -2.210660 1.713381 -0.102249 0.065188 -0.150289 -1.856725 3.409592 0.000003 -0.000004 0.000005 
-0.261355 0.051051 2.337775 8.178376 5.933651 0.594121 -0.001262 0.143019 0.265921 0.051402 0.032377 1.536800 -1.246932 -0.935553 0.496006 -4.120108 -3.158602 1.625255 -0.025452 -0.015681 0.659658 -15.637501 -0.789127 -1.302978 -1.595366 0.866790 0.004509 0.023101 -0.226561 0.629512 0.783846 14.230493 0.547227 64.581064 30.058556 -56.086990 0.403539 0.347354 -8.863466 0.000011 0.000002 -0.000010 0.261504 -0.091146 0.029940 0.000006 -0.000005 -0.000005 0.000001 0.000002 -0.000008 0.000003 0.000001 -0.000006 0.269303 -0.023910 0.036733 -0.000001 -0.000000 -0.000003 -0.000006 0.000003 -0.000002 -0.000000 0.000005 0.000004 0.259435 0.044467 0.030249 -0.000005 0.000002 -0.000001 -0.000001 0.000001 -0.000000 -0.000011 0.000003 -0.000003 0.244970 0.091238 -0.004564 -0.000011 0.000003 -0.000004 0.000004 -0.000000 0.000012 0.000000 -0.000003 -0.000002 0.054396 -0.043377 -0.041628 -0.000016 -0.000003 -0.000002 0.000009 0.000004 -0.000005 -0.000002 0.000009 -0.000013 -0.096579 -0.219346 0.625067 -0.952612 -14.670360 -0.763880 68.947317 -26.792723 63.794547 -0.152219 -0.193867 4.362575 0.000002 -0.000006 0.000004 -0.272039 -0.058998 0.010121 -0.000006 -0.000000 0.000001 0.000009 -0.000011 -0.000001 0.000003 0.000015 -0.000002 -0.272201 0.008718 0.016618 -0.000003 0.000001 0.000004 0.000000 0.000000 0.000002 -0.000001 -0.000007 0.000001 -0.253752 0.075390 0.011183 -0.000002 0.000004 0.000002 -0.000004 0.000004 -0.000006 0.000009 -0.000001 -0.000012 -0.231249 0.119933 -0.022256 -0.000001 0.000002 0.000000 -0.000000 -0.000001 0.000007 -0.000012 -0.000004 -0.000012 -0.055977 -0.036724 -0.045725 -0.000002 0.000008 0.000002 0.000003 -0.000010 0.000002 -0.000006 -0.000006 -0.000002 -0.309184 0.038560 0.106840 -14.586240 -6.337488 0.886359 5.440898 -0.385251 0.925800 0.075378 0.793250 -1.503744 0.000007 0.000021 0.000004 0.286956 0.010519 0.243539 -10.194664 -5.842493 -2.210660 1.713381 -0.102249 0.065188 -0.150289 -1.856725 3.409592 0.000003 -0.000004 0.000005 
-0.261355 0.051051 2.337775 8.178376 5.933651 0.594121 -0.001262 0.143019 0.265921 0.051402 0.032377 1.536800 -1.246932 -0.935553 0.496006 -4.120108 -3.158602 1.625255 -0.025452 -0.015681 0.659658 -15.637501 -0.789127 -1.302978 -1.595366 0.866790 0.004509 0.023101 -0.226561 0.629512 0.783846 14.230493 0.547227 64.581064 30.058556 -56.086990 0.403539 0.347354 -8.863466 0.000011 0.000002 -0.000010 0.261504 -0.091146 0.029940 0.000006 -0.000005 -0.000005 0.000001 0.000002 -0.000008 0.000003 0.000001 -0.000006 0.269303 -0.023910 0.036733 -0.000001 -0.000000 -0.000003 -0.000006 0.000003 -0.000002 -0.000000 0.000005 0.000004 0.259435 0.044467 0.030249 -0.000005 0.000002 -0.000001 -0.000001 0.000001 -0.000000 -0.000011 0.000003 -0.000003 0.244970 0.091238 -0.004564 -0.000011 0.000003 -0.000004 0.000004 -0.000000 0.000012 0.000000 -0.000003 -0.000002 0.054396 -0.043377 -0.041628 -0.000016 -0.000003 -0.000002 0.000009 0.000004 -0.000005 -0.000002 0.000009 -0.000013 -0.096579 -0.219346 0.625067 -0.952612 -14.670360 -0.763880 68.947317 -26.792723 63.794547 -0.152219 -0.193867 4.362575 0.000002 -0.000006 0.000004 -0.272039 -0.058998 0.010121 -0.000006 -0.000000 0.000001 0.000009 -0.000011 -0.000001 0.000003 0.000015 -0.000002 -0.272201 0.008718 0.016618 -0.000003 0.000001 0.000004 0.000000 0.000000 0.000002 -0.000001 -0.000007 0.000001 -0.253752 0.075390 0.011183 -0.000002 0.000004 0.000002 -0.000004 0.000004 -0.000006 0.000009 -0.000001 -0.000012 -0.231249 0.119933 -0.022256 -0.000001 0.000002 0.000000 -0.000000 -0.000001 0.000007 -0.000012 -0.000004 -0.000012 -0.055977 -0.036724 -0.045725 -0.000002 0.000008 0.000002 0.000003 -0.000010 0.000002 -0.000006 -0.000006 -0.000002 -0.309184 0.038560 0.106840 -14.586240 -6.337488 0.886359 5.440898 -0.385251 0.925800 0.075378 0.793250 -1.503744 0.000007 0.000021 0.000004 0.286956 0.010519 0.243539 -10.194664 -5.842493 -2.210660 1.713381 -0.102249 0.065188 -0.141841 -1.856734 3.410182 0.000006 -0.000004 0.000003 
-0.274906 0.049081 2.343755 7.984711 5.139880 -0.169511 -0.001262 0.143019 0.265921 0.042319 0.015308 1.777724 -1.073074 -0.689101 0.415898 -3.548162 -2.338921 1.279831 -0.025452 -0.015681 0.659659 -15.970840 -0.569527 -1.215289 -1.929865 0.182302 -0.078286 0.023101 -0.226560 0.629513 0.798253 13.915412 0.540212 65.583483 28.932377 -55.873317 0.590675 0.461214 -12.557954 0.000007 0.000007 -0.000006 0.261505 -0.091146 0.029940 0.000009 -0.000001 0.000002 -0.000001 0.000007 -0.000004 0.000012 0.000002 -0.000006 0.269304 -0.023910 0.036733 -0.000001 0.000001 0.000001 -0.000009 0.000001 -0.000001 -0.000002 0.000001 0.000001 0.259435 0.044468 0.030249 0.000004 0.000004 0.000003 0.000001 0.000004 0.000001 -0.000002 0.000002 -0.000001 0.244971 0.091238 -0.004565 -0.000003 0.000003 -0.000000 -0.000005 -0.000003 0.000007 -0.000006 0.000002 -0.000000 0.054397 -0.043377 -0.041628 -0.000006 -0.000008 0.000010 0.000015 0.000009 -0.000002 0.000005 0.000005 -0.000009 -0.096579 -0.219346 0.625067 -0.932647 -14.664517 -0.738533 71.495415 -24.186656 65.526827 -0.244096 -0.313349 7.246470 -0.000079 -0.000432 -0.000051 -0.272040 -0.058998 0.010121 -0.000006 -0.000002 0.000002 0.000002 -0.000014 -0.000004 -0.000002 0.000012 0.000001 -0.272202 0.008718 0.016618 0.000003 0.000002 -0.000002 0.000006 0.000002 0.000001 -0.000011 -0.000005 -0.000000 -0.253753 0.075390 0.011183 0.000000 0.000005 0.000003 0.000002 0.000006 -0.000001 0.000012 0.000001 -0.000005 -0.231250 0.119933 -0.022256 0.000003 0.000000 0.000001 -0.000008 0.000001 0.000001 0.000003 -0.000000 -0.000013 -0.055978 -0.036723 -0.045725 0.000008 0.000002 0.000009 0.000020 -0.000005 0.000020 -0.000000 0.000004 -0.000005 -0.309184 0.038560 0.106839 -15.039359 -5.601452 1.604859 6.372514 -0.560444 2.277810 0.733304 1.099063 -2.027283 0.000001 0.000023 0.000003 0.286956 0.010519 0.243538 -9.677876 -5.447463 -2.193002 1.626299 -0.097098 0.061801 -0.122369 -3.007445 5.539114 0.000002 -0.000004 0.000003 
-0.285779 0.047776 2.346982 8.014824 4.731518 -0.930669 -0.001262 0.143019 0.265921 0.039811 0.012846 1.854395 -0.998165 -0.595607 0.351871 -3.301279 -2.013243 1.146791 -0.025452 -0.015682 0.659659 -16.586115 -0.338065 -1.143779 -2.095822 -0.000835 -0.105261 0.023101 -0.226561 0.629513 0.771843 13.751496 0.538797 66.345370 27.620214 -55.501598 0.747339 0.546417 -15.527171 0.000015 0.000007 -0.000005 0.261504 -0.091147 0.029940 0.000017 -0.000001 -0.000003 0.000006 0.000003 -0.000002 0.000003 -0.000003 -0.000002 0.269303 -0.023911 0.036733 0.000005 0.000002 -0.000002 -0.000002 0.000001 -0.000001 -0.000005 0.000001 0.000000 0.259435 0.044467 0.030248 0.000005 0.000004 0.000003 -0.000001 0.000001 -0.000000 0.000003 0.000003 -0.000002 0.244970 0.091238 -0.004565 0.000006 0.000002 -0.000002 -0.000003 -0.000002 0.000009 0.000001 0.000001 -0.000000 0.054397 -0.043377 -0.041628 -0.000016 -0.000005 0.000003 0.000019 0.000002 -0.000011 -0.000003 0.000015 -0.000005 -0.096579 -0.219347 0.625067 -0.912672 -14.658677 -0.713200 72.193358 -23.601362 65.910076 -0.298964 -0.393343 9.087597 -0.000150 -0.000855 -0.000110 -0.272039 -0.058998 0.010122 -0.000007 -0.000007 0.000009 0.000005 -0.000015 -0.000001 -0.000002 0.000013 -0.000002 -0.272201 0.008718 0.016618 -0.000001 0.000003 0.000004 0.000001 0.000004 0.000001 0.000001 -0.000004 0.000001 -0.253752 0.075389 0.011183 0.000001 0.000005 0.000004 -0.000002 0.000004 -0.000005 0.000008 0.000000 -0.000006 -0.231250 0.119933 -0.022256 -0.000000 0.000005 -0.000000 -0.000006 -0.000002 0.000004 0.000000 -0.000015 -0.000015 -0.055978 -0.036723 -0.045724 0.000010 0.000012 0.000009 0.000012 -0.000012 0.000006 -0.000007 0.000001 -0.000000 -0.309184 0.038560 0.106840 -15.550001 -5.361290 1.883234 6.861008 -0.807517 4.896040 1.730870 1.765212 -3.363093 0.000004 0.000023 0.000004 0.286956 0.010519 0.243539 -9.515487 -5.316283 -2.251756 1.539218 -0.091943 0.058421 -0.022923 -2.453700 4.475719 0.000007 -0.000004 0.000004 
